# xmcd CD database file
#
# Track frame offsets:
#	150
#	29775
#	40800
#	69750
#	103725
#	149400
#	179250
#	236475
#	239700
#
# Disc length: 3246 seconds
#
# Revision: 1
# Processed by: cddbd v1.5.2PL0 Copyright (c) Steve Scherf et al.
# Submitted via: CDex 1.51
#
DISCID=7f0cac09
DTITLE=Paul Ferrini - Denn Christus lebt in jedem von Euch CD4
DYEAR=2006
DGENRE=mus
TTITLE0=Halte die Liebe nicht zurück
TTITLE1=Meditation über das Gefühl geliebt zu werden
TTITLE2=Die Illusion der objektiven Realität
TTITLE3=Das Wunder: Zum Ende des Tuns gelangen
TTITLE4=Der Weg der Vergebung
TTITLE5=Der Tod des Egos
TTITLE6=Das Geschenk
TTITLE7=Gebet
TTITLE8=Ende
EXTD=YEAR: 2006
EXTT0=
EXTT1=
EXTT2=
EXTT3=
EXTT4=
EXTT5=
EXTT6=
EXTT7=
EXTT8=
PLAYORDER=
